<svg width="390" height="88" viewBox="0 0 390 88" fill="none" xmlns="http://www.w3.org/2000/svg">
<g filter="url(#filter0_b_0_524)">
<path d="M0 0C0 0 76.0769 15.9822 127 20C153.339 22.0782 168.554 23 195 23C221.446 23 235.661 22.0782 262 20C312.923 15.9822 390 0 390 0V88H0V0Z" fill="url(#paint0_linear_0_524)" fill-opacity="0.26"/>
<path d="M0 0L0.0513978 -0.244659L-0.25 -0.307977V0V88V88.25H0H390H390.25V88V0V-0.307156L389.949 -0.244793L390 0C389.949 -0.244793 389.949 -0.244734 389.948 -0.244614L389.946 -0.244071L389.935 -0.241896L389.893 -0.233226L389.727 -0.198889C389.58 -0.168549 389.36 -0.123455 389.072 -0.0644588C388.495 0.0535326 387.643 0.22713 386.539 0.449509C384.333 0.894269 381.124 1.53416 377.113 2.31459C369.093 3.87548 357.868 5.99851 345.053 8.24707C319.42 12.7446 287.43 17.7428 261.98 19.7508C235.644 21.8287 221.437 22.75 195 22.75C168.563 22.75 153.355 21.8286 127.02 19.7508C101.571 17.7428 69.8304 12.7446 44.4475 8.24714C31.757 5.99859 20.6577 3.87557 12.731 2.3147C8.76767 1.53427 5.59756 0.894386 3.41838 0.44963C2.32879 0.227252 1.48694 0.0536578 0.917538 -0.0643316C0.632837 -0.123326 0.416248 -0.168419 0.270862 -0.198758L0.10657 -0.233094L0.0651988 -0.241763L0.054834 -0.243938L0.0522476 -0.244481C0.0516779 -0.244601 0.0513978 -0.244659 0 0Z" stroke="#7582F4" stroke-opacity="0.5" stroke-width="0.5"/>
</g>
<defs>
<filter id="filter0_b_0_524" x="-50.5" y="-50.616" width="491" height="189.116" filterUnits="userSpaceOnUse" color-interpolation-filters="sRGB">
<feFlood flood-opacity="0" result="BackgroundImageFix"/>
<feGaussianBlur in="BackgroundImageFix" stdDeviation="25"/>
<feComposite in2="SourceAlpha" operator="in" result="effect1_backgroundBlur_0_524"/>
<feBlend mode="normal" in="SourceGraphic" in2="effect1_backgroundBlur_0_524" result="shape"/>
</filter>
<linearGradient id="paint0_linear_0_524" x1="271.51" y1="1.57783e-07" x2="271.51" y2="88" gradientUnits="userSpaceOnUse">
<stop stop-color="#3A3A6A"/>
<stop offset="1" stop-color="#25244C"/>
</linearGradient>
</defs>
</svg>
