<svg width="258" height="100" viewBox="0 0 258 100" fill="none" xmlns="http://www.w3.org/2000/svg">
<g filter="url(#filter0_d_0_69)">
<path d="M108 0H150C182 0 191.501 24.1398 201.732 48.6985C212.325 74.1247 223 100 258 100H0C35 100 45.6753 74.1247 56.2677 48.6985C66.4988 24.1398 76 0 108 0Z" fill="url(#paint0_linear_0_69)"/>
<path d="M108 0.25H150C165.923 0.25 176.229 6.24974 183.838 15.3006C191.21 24.0697 196.053 35.7041 200.994 47.575C201.163 47.9813 201.332 48.3879 201.501 48.7947L201.604 49.0418C206.863 61.6652 212.18 74.4274 220.524 84.0479C227.572 92.1732 236.776 98.0545 249.909 99.75H8.09136C21.2235 98.0545 30.4277 92.1732 37.4756 84.0479C45.8205 74.4273 51.137 61.6651 56.3956 49.0417L56.4985 48.7947C56.668 48.3879 56.8372 47.9813 57.0063 47.5751C61.9473 35.7041 66.7899 24.0697 74.1619 15.3006C81.7707 6.24974 92.0771 0.25 108 0.25Z" stroke="#7582F4" stroke-opacity="0.5" stroke-width="0.5"/>
</g>
<defs>
<filter id="filter0_d_0_69" x="-4" y="0" width="266" height="108" filterUnits="userSpaceOnUse" color-interpolation-filters="sRGB">
<feFlood flood-opacity="0" result="BackgroundImageFix"/>
<feColorMatrix in="SourceAlpha" type="matrix" values="0 0 0 0 0 0 0 0 0 0 0 0 0 0 0 0 0 0 127 0" result="hardAlpha"/>
<feOffset dy="4"/>
<feGaussianBlur stdDeviation="2"/>
<feComposite in2="hardAlpha" operator="out"/>
<feColorMatrix type="matrix" values="0 0 0 0 0.458824 0 0 0 0 0.509804 0 0 0 0 0.956863 0 0 0 1 0"/>
<feBlend mode="normal" in2="BackgroundImageFix" result="effect1_dropShadow_0_69"/>
<feBlend mode="normal" in="SourceGraphic" in2="effect1_dropShadow_0_69" result="shape"/>
</filter>
<linearGradient id="paint0_linear_0_69" x1="179.615" y1="100" x2="179.615" y2="0" gradientUnits="userSpaceOnUse">
<stop stop-color="#262C51"/>
<stop offset="1" stop-color="#3E3F74"/>
</linearGradient>
</defs>
</svg>
